<svg xmlns="http://www.w3.org/2000/svg" xmlns:xlink="http://www.w3.org/1999/xlink" version="1.1" width="64" height="64" style="enable-background:new 0 0 64 64;" xml:space="preserve"><rect id="backgroundrect" width="100%" height="100%" x="0" y="0" fill="none" stroke="none"/>
<g class="currentLayer" style=""><title>Layer 1</title><g id="svg_1" class="selected" fill="#ffffff" fill-opacity="1">
	<g id="svg_2" fill="#ffffff" fill-opacity="1">
		<g id="circle_copy_4_2_" fill="#ffffff" fill-opacity="1">
			<g id="svg_3" fill="#ffffff" fill-opacity="1">
				<path d="M32,0C14.327,0,0,14.327,0,32s14.327,32,32,32s32-14.327,32-32S49.673,0,32,0z M32,62.001C15.432,62.001,2,48.568,2,32      C2,15.432,15.432,2,32,2c16.568,0,30,13.432,30,30C62,48.568,48.568,62.001,32,62.001z" id="svg_4" fill="#ffffff" fill-opacity="1"/>
			</g>
		</g>
		<g id="Menu_3_" fill="#ffffff" fill-opacity="1">
			<g id="svg_5" fill="#ffffff" fill-opacity="1">
				<polygon points="41.191,24.222 39.777,22.808 32,30.586 24.222,22.808 22.808,24.222 30.586,32 22.808,39.777 24.222,41.191       32,33.414 39.777,41.191 41.191,39.777 33.414,32     " id="svg_6" fill="#ffffff" fill-opacity="1"/>
			</g>
		</g>
	</g>
</g><g id="svg_7">
</g><g id="svg_8">
</g><g id="svg_9">
</g><g id="svg_10">
</g><g id="svg_11">
</g><g id="svg_12">
</g><g id="svg_13">
</g><g id="svg_14">
</g><g id="svg_15">
</g><g id="svg_16">
</g><g id="svg_17">
</g><g id="svg_18">
</g><g id="svg_19">
</g><g id="svg_20">
</g><g id="svg_21">
</g></g></svg>